<svg width="64" height="64" viewBox="0 0 64 64" fill="none" xmlns="http://www.w3.org/2000/svg">
<path d="M15.5893 37.2365C3.11601 46.6394 7.46897 54.0509 22.734 47.9184C28.8892 45.0738 32.3252 38.9432 30.9423 36.2596C29.3291 33.1293 21.5841 32.7175 15.5893 37.2365Z" fill="#006633"/>
<path d="M18.003 28.7984C9.5138 19.4767 14.0738 14.2481 25.2659 21.3928C29.7233 24.5688 31.6137 30.0142 30.1158 31.9362C28.3686 34.1783 22.0829 33.2785 18.003 28.7984Z" fill="#009A4D"/>
<path d="M48.438 37.2365C60.9113 46.6394 56.5584 54.0509 41.2934 47.9184C35.1381 45.0738 31.7021 38.9432 33.0851 36.2596C34.6983 33.1293 42.4433 32.7175 48.438 37.2365Z" fill="#006633"/>
<path d="M46.0302 28.7984C54.5194 19.4767 49.9594 14.2481 38.7673 21.3928C34.3099 24.5688 32.4195 30.0142 33.9174 31.9362C35.6646 34.1783 41.9503 33.2785 46.0302 28.7984Z" fill="#009A4D"/>
<path d="M25.8953 24.0266C27.6473 9.46079 35.7199 9.49952 37.941 24.7897C38.5344 31.1305 35.1769 33.9579 32.3451 34.1008C29.0418 34.2674 25.0533 31.0269 25.8953 24.0266Z" fill="#FFAD00" stroke="white" stroke-width="2.5"/>
</svg>
